<svg xmlns="http://www.w3.org/2000/svg" id="blog" viewBox="0 0 48 48" fill="rgb(52, 73, 94)">
  <path fill="#FF3D00" d="M30,11.001c1.188,0.594,4.486,0.13,6.974-0.346C38.59,8.737,40.267,6.543,42,4  c-9.55,0-15.856,1.338-19.977,3.303c-0.779,1.549-1.59,3.528-2.023,5.698c0-0.864,0.187-2.847,0.398-4.821  c-0.711,0.431-1.35,0.88-1.902,1.348C18.004,12.299,18,15.001,18,15.001s-0.609-1.833-0.987-3.979C12.549,16.435,16,23,16,23  s7.75,2.105,19.109-10.221C33.168,12.539,31.042,12.043,30,11.001z"/>
  <path fill="#DD2C00" d="M30,11.001c1.188,0.594,4.486,0.13,6.974-0.346C38.59,8.737,40.267,6.543,42,4c-7.938,0.75-26,11.625-26,19  c0,0,7.75,2.105,19.109-10.221C33.168,12.539,31.042,12.043,30,11.001z"/>
  <path fill="#FFCCBC" d="M12,38C12,9.383,37.968,4.613,42,4c-4.002,0.777-28,6.375-28,34H12z"/>
	<path fill="#90CAF9" d="M21,31c0,0.553-0.447,1-1,1h-8c-0.553,0-1-0.447-1-1v-5c0-0.553,0.447-1,1-1h8c0.553,0,1,0.447,1,1V31z"/>
	<path fill="#90CAF9" d="M20,29h-8c-3.313,0-6,3-6,6s2,7.002,2,7.002S8.75,44,10.688,44c0.951,0,9.674,0,10.625,0   C23.25,44,24,42.002,24,42.002S26,38,26,35S23.313,29,20,29z"/>
	<rect x="11" y="27" fill="#42A5F5" width="10" height="2"/>
	<path fill="#42A5F5" d="M14.17,25.001C12.818,28.67,12,32.957,12,38h2c0-5.037,0.813-9.324,2.144-12.999H14.17z"/>
  <path fill="#673AB7" d="M23.371,33H8.629C8.233,33.63,8,34.334,8,35c0,2.074,1.291,5.112,1.789,6.107l0.047,0.094l0.036,0.098  c0.001,0,0.31,0.701,0.815,0.701h10.625c0.502,0,0.813-0.693,0.815-0.701l0.036-0.098l0.047-0.094C22.708,40.109,24,37.061,24,35  C24,34.334,23.767,33.63,23.371,33z"/>
</svg>