<svg>
  <defs>

    <g id="self-logo" viewBox="0 0 48 48" fill="rgb(52, 73, 94)">
      <path fill="#90A4AE" d="M31,39c3,0-17,0-14,0s3-5,3-5h8C28,34,28,39,31,39z"/>
      <path fill="#455A64" d="M42,6H6C4.9,6,4,6.9,4,8v22h40V8C44,6.9,43.1,6,42,6z"/>
      <rect x="6" y="8" fill="#BBDEFB" width="36" height="20"/>
      <path fill="#B0BEC5" d="M4,30h40v2c0,1.1-0.9,2-2,2H6c-1.1,0-2-0.9-2-2V30z M32,39H16v2h16V39z"/>
      <circle fill="#37474F" cx="24" cy="32" r="1"/>
    </g>

    <g id="cancel" viewBox="0 0 48 48" fill="rgb(52, 73, 94)" width="24" height="24">
      <circle style="fill:#F44336;" cx="24" cy="24" r="19"/>
      <rect x="22" y="14" transform="matrix(0.7071 0.7071 -0.7071 0.7071 24 -9.9411)" style="fill:#FFFFFF;" width="4" height="20"/>
      <rect x="22" y="14" transform="matrix(-0.7071 0.7071 -0.7071 -0.7071 57.9411 24)" style="fill:#FFFFFF;" width="4" height="20"/>
    </g>

    <g id="external-link"  width="24" height="24" viewBox="0 0 48 48">
      <rect x="6" y="10" fill="#BBDEFB" width="32" height="32"/>
      <g>
        <polygon fill="#3F51B5" points="42,6 42,21 27,6  "/>
        <rect x="26.132" y="10.368" transform="matrix(0.7071 0.7071 -0.7071 0.7071 21.4601 -16.073)" fill="#3F51B5" width="8.001" height="15"/>
      </g>
    </g>

    <g id="email-symbol" viewBox="0 0 48 48">
      <path fill="#2196F3" d="M40.977,22.892c-0.15,3.471-1.008,6.226-2.573,8.266s-3.671,3.059-6.313,3.059   c-1.167,0-2.173-0.251-3.021-0.752c-0.847-0.499-1.486-1.22-1.921-2.154c-1.355,1.897-3.125,2.847-5.307,2.847   c-1.979,0-3.511-0.835-4.594-2.502c-1.084-1.668-1.492-3.869-1.221-6.607c0.244-2.236,0.811-4.227,1.699-5.969   c0.887-1.74,2.009-3.08,3.364-4.015c1.355-0.935,2.819-1.403,4.392-1.403c1.938,0,3.592,0.448,4.961,1.344l1.281,0.873   L30.688,27.63c-0.136,1.07-0.018,1.891,0.356,2.459c0.372,0.57,0.965,0.854,1.778,0.854c1.247,0,2.291-0.729,3.131-2.187   c0.84-1.456,1.301-3.362,1.383-5.723c0.23-4.731-0.721-8.368-2.855-10.907c-2.136-2.541-5.298-3.813-9.485-3.813   c-2.617,0-4.948,0.664-6.994,1.993c-2.047,1.329-3.661,3.217-4.839,5.664c-1.18,2.445-1.845,5.247-1.994,8.406   c-0.216,4.798,0.746,8.509,2.888,11.131c2.141,2.623,5.347,3.934,9.617,3.934c1.125,0,2.304-0.124,3.538-0.376   c1.232-0.251,2.298-0.587,3.191-1.006l0.773,3.13c-0.827,0.543-1.941,0.981-3.346,1.313C26.429,42.836,25.015,43,23.592,43   c-3.579,0-6.628-0.723-9.149-2.164c-2.521-1.444-4.402-3.571-5.642-6.385c-1.24-2.813-1.779-6.173-1.617-10.074   C7.346,20.634,8.2,17.28,9.747,14.313c1.544-2.969,3.648-5.264,6.313-6.881C18.722,5.811,21.728,5,25.076,5   c3.401,0,6.33,0.729,8.783,2.186c2.452,1.456,4.289,3.54,5.51,6.251C40.59,16.148,41.125,19.299,40.977,22.892z M20.542,25.047   c-0.15,1.789,0.007,3.148,0.468,4.076c0.459,0.929,1.206,1.395,2.236,1.395c0.664,0,1.294-0.292,1.891-0.876   c0.596-0.583,1.092-1.422,1.484-2.521l0.854-9.617c-0.527-0.177-1.071-0.264-1.626-0.264c-1.559,0-2.769,0.664-3.629,1.992   C21.358,20.56,20.799,22.5,20.542,25.047z"/>
    </g>

    <g id="find-me" width="24" height="24" viewBox="0 0 48 48" fill="rgb(52, 73, 94)">
      <circle fill="none" stroke="#64B5F6" stroke-width="4" cx="24" cy="24" r="16"/>
      <line fill="none" stroke="#2196F3" stroke-width="4" stroke-linecap="square" x1="24" y1="5" x2="24" y2="11"/>
      <line fill="none" stroke="#2196F3" stroke-width="4" stroke-linecap="square" x1="24" y1="37" x2="24" y2="43"/>
      <line fill="none" stroke="#2196F3" stroke-width="4" stroke-linecap="square" x1="11" y1="24" x2="5" y2="24"/>
      <line fill="none" stroke="#2196F3" stroke-width="4" stroke-linecap="square" x1="43" y1="24" x2="37" y2="24"/>
    </g>

    <g id="help" width="24" height="24" viewBox="0 0 48 48" fill="rgb(52, 73, 94)">
      <circle fill="#2196F3" cx="24" cy="24" r="19"/>
      <path fill="#E3F2FD" d="M23.759,31.143c-0.729,0-1.331,0.237-1.798,0.712c-0.469,0.473-0.702,1.075-0.702,1.805   c0,0.72,0.229,1.313,0.688,1.781c0.458,0.468,1.062,0.702,1.813,0.702s1.354-0.234,1.813-0.702   c0.458-0.469,0.687-1.062,0.687-1.781c0-0.729-0.234-1.332-0.702-1.805C25.095,31.387,24.479,31.143,23.759,31.143z"/>
      <path fill="#E3F2FD" d="M29.182,14.587C27.97,13.529,26.266,13,24.069,13c-2.175,0-3.893,0.558-5.15,1.671   c-1.194,1.057-1.825,2.504-1.904,4.33L17,19v1h4.5l0.007-0.703c0.02-0.826,0.261-1.474,0.722-1.943   c0.46-0.471,1.074-0.706,1.841-0.706c1.616,0,2.424,0.872,2.424,2.616c0,0.579-0.154,1.129-0.466,1.65   c-0.31,0.521-0.935,1.196-1.872,2.027c-0.938,0.83-1.582,1.673-1.935,2.528c-0.353,0.856-0.528,2.086-0.528,3.53h3.978l0.063-1.022   c0.113-1.011,0.564-1.893,1.353-2.646l1.259-1.191c0.983-0.948,1.672-1.813,2.066-2.591c0.394-0.778,0.59-1.606,0.59-2.484   C31,17.137,30.395,15.644,29.182,14.587z"/>
    </g>

    <g id="icons8" viewBox="0 0 48 48" width="24" height="24">
      <circle style="fill:#4CAF50;" cx="24" cy="24" r="19"/>
      <path style="fill:#FFFFFF;" d="M30,20c2.206,0,4,1.794,4,4s-1.794,4-4,4s-4-1.794-4-4S27.794,20,30,20 M30,16c-4.418,0-8,3.582-8,8   s3.582,8,8,8s8-3.582,8-8S34.418,16,30,16L30,16z"/>
      <path style="fill:#FFFFFF;" d="M18,20c2.206,0,4,1.794,4,4s-1.794,4-4,4s-4-1.794-4-4S15.794,20,18,20 M18,16c-4.418,0-8,3.582-8,8   s3.582,8,8,8s8-3.582,8-8S22.418,16,18,16L18,16z"/>
    </g>

    <g id="menu" viewBox="0 0 48 48" width="48" height="48">
      <path d="M29,7c0,2.8-2.2,5-5,5c-2.8,0-5-2.2-5-5c0-2.8,2.2-5,5-5C26.8,2,29,4.2,29,7z M24,19c-2.8,0-5,2.2-5,5  c0,2.8,2.2,5,5,5c2.8,0,5-2.2,5-5C29,21.2,26.8,19,24,19z M24,36c-2.8,0-5,2.2-5,5c0,2.8,2.2,5,5,5c2.8,0,5-2.2,5-5  C29,38.2,26.8,36,24,36z"/>
    </g>

    <g id="my-location-button" viewBox="0 0 48 48" height="48" width="48">
      <path d="M0 0h48v48H0z" fill="none"/>
      <path d="M24 16c-4.42 0-8 3.58-8 8s3.58 8 8 8 8-3.58 8-8-3.58-8-8-8zm17.88 6c-.92-8.34-7.54-14.96-14.88-14.88V2h-4v4.12C13.66 7.04 7.04 13.66 6.12 22H2v4h4.12c.92 8.34 7.54 14.96 15.88 15.88V46h4v-4.12c8.34-.92 14.96-7.54 15.88-15.88H46v-4h-4.12zM24 38c-6.74 0-14-6.26-14-14s6.26-14 14-14 14 6.26 14 14-6.26 14-14 14z"/>
    </g>

    <g id="ok" viewBox="0 0 48 48" width="24" height="24" fill="rgb(52, 73, 94)">
      <circle fill="#4CAF50" cx="24" cy="24" r="21"/>
      <polygon fill="#CCFF90" points="34.6,14.6 21,28.2 15.4,22.6 12.6,25.4 21,33.8 37.4,17.4 "/>
    </g>

    <g id="pen" viewBox="0 0 48 48">
      <path fill="#FFC107" d="M5,41.934c0.059-0.166,5.847-16.783,7.487-25.001l0.134-0.673h0.685c7.416,0,11.016-1.1,14.264-4.358  l0.592-0.592l8.457,8.477l-0.592,0.592c-3.25,3.258-4.346,6.866-4.346,14.3v0.687l-0.673,0.135C22.81,37.141,6.23,42.941,6.064,43  L5,41.934z"/>
      <path fill="#C6820A" d="M21.414,26.55c-0.327-0.327-0.855-0.327-1.182,0L5.063,41.754c-0.035,0.104-0.06,0.17-0.063,0.18L6.064,43   c0.01-0.003,0.077-0.025,0.18-0.063l15.17-15.205C21.74,27.406,21.74,26.877,21.414,26.55z"/>
      <ellipse fill="#C6820A" cx="22.438" cy="25.452" rx="2.294" ry="2.3"/>
      <path fill="#E91E63" d="M36.57,21.623L26.414,11.444L30.701,5L43,17.326L36.57,21.623z"/>
    </g>

    <g id="person" viewBox="0 0 48 48">
      <polygon fill="#FF9800" points="24,37 19,31 19,25 29,25 29,31 "/>
      <circle fill="#FFA726" cx="33" cy="19" r="2"/>
      <circle fill="#FFA726" cx="15" cy="19" r="2"/>
      <path fill="#FFB74D" d="M33,13c0-7.6-18-5-18,0c0,1.1,0,5.9,0,7c0,5,4,9,9,9s9-4,9-9C33,18.9,33,14.1,33,13z"/>
      <path fill="#424242" d="M24,4c-6.1,0-10,4.9-10,11c0,0.8,0,2.3,0,2.3l2,1.7v-5l12-4l4,4v5l2-1.7c0,0,0-1.5,0-2.3c0-4-1-8-6-9l-1-2  H24z"/>
      <circle fill="#784719" cx="28" cy="19" r="1"/>
      <circle fill="#784719" cx="20" cy="19" r="1"/>
      <polygon fill="#FFFFFF" points="24,43 19,31 24,32 29,31 "/>
      <polygon fill="#D32F2F" points="23,35 22.3,39.5 24,43.5 25.7,39.5 25,35 26,34 24,32 22,34 "/>
      <path fill="#546E7A" d="M29,31L29,31l-5,12l-5-12c0,0-11,2-11,13h32C40,33,29,31,29,31z"/>
    </g>

    <g id="person-pin" width="55" height="55" viewBox="0 0 48 48" fill="rgb(52, 73, 94)">
      <path fill="#1E88E5" d="M7,8v26c0,2.2,1.8,4,4,4h8l5,6l5-6h8c2.2,0,4-1.8,4-4V8c0-2.2-1.8-4-4-4H11C8.8,4,7,5.8,7,8"/>
      <path fill="#FFCC80" d="M29,16c0,2.762-2.238,5-5,5s-5-2.238-5-5s2.238-5,5-5S29,13.238,29,16"/>
      <path fill="#90CAF9" d="M33,28c0,0-2-5-9-5s-9,5-9,5v2h18V28z"/>
    </g>

    <g id="search" width="24" height="24" viewBox="0 0 48 48">
      <rect x="34.6" y="28.1" transform="matrix(0.7071 -0.7071 0.7071 0.7071 -15.1544 36.5859)" fill="#616161" width="4" height="17"/>
      <circle fill="#616161" cx="20" cy="20" r="16"/>
      <rect x="36.2" y="32.1" transform="matrix(0.7071 -0.7071 0.7071 0.7071 -15.8392 38.2393)" fill="#37474F" width="4" height="12.3"/>
      <circle fill="#64B5F6" cx="20" cy="20" r="13"/>
      <path fill="#BBDEFB" d="M26.9,14.2c-1.7-2-4.2-3.2-6.9-3.2s-5.2,1.2-6.9,3.2c-0.4,0.4-0.3,1.1,0.1,1.4c0.4,0.4,1.1,0.3,1.4-0.1  C16,13.9,17.9,13,20,13s4,0.9,5.4,2.5c0.2,0.2,0.5,0.4,0.8,0.4c0.2,0,0.5-0.1,0.6-0.2C27.2,15.3,27.2,14.6,26.9,14.2z"/>
    </g>

    <g id="settings" viewBox="0 0 48 48" height="24" width="24">
      <path fill="#607D8B" d="M39.6,27.2c0.1-0.7,0.2-1.4,0.2-2.2s-0.1-1.5-0.2-2.2l4.5-3.2c0.4-0.3,0.6-0.9,0.3-1.4L40,10.8  c-0.3-0.5-0.8-0.7-1.3-0.4l-5,2.3c-1.2-0.9-2.4-1.6-3.8-2.2l-0.5-5.5c-0.1-0.5-0.5-0.9-1-0.9h-8.6c-0.5,0-1,0.4-1,0.9l-0.5,5.5  c-1.4,0.6-2.7,1.3-3.8,2.2l-5-2.3c-0.5-0.2-1.1,0-1.3,0.4l-4.3,7.4c-0.3,0.5-0.1,1.1,0.3,1.4l4.5,3.2c-0.1,0.7-0.2,1.4-0.2,2.2  s0.1,1.5,0.2,2.2L4,30.4c-0.4,0.3-0.6,0.9-0.3,1.4L8,39.2c0.3,0.5,0.8,0.7,1.3,0.4l5-2.3c1.2,0.9,2.4,1.6,3.8,2.2l0.5,5.5  c0.1,0.5,0.5,0.9,1,0.9h8.6c0.5,0,1-0.4,1-0.9l0.5-5.5c1.4-0.6,2.7-1.3,3.8-2.2l5,2.3c0.5,0.2,1.1,0,1.3-0.4l4.3-7.4  c0.3-0.5,0.1-1.1-0.3-1.4L39.6,27.2z M24,35c-5.5,0-10-4.5-10-10c0-5.5,4.5-10,10-10c5.5,0,10,4.5,10,10C34,30.5,29.5,35,24,35z"/>
      <path fill="#455A64" d="M24,13c-6.6,0-12,5.4-12,12c0,6.6,5.4,12,12,12s12-5.4,12-12C36,18.4,30.6,13,24,13z M24,30  c-2.8,0-5-2.2-5-5c0-2.8,2.2-5,5-5s5,2.2,5,5C29,27.8,26.8,30,24,30z"/>
    </g>

    <g id="course" width="24" height="24" viewBox="0 0 48 48" fill="rgb(52, 73, 94)">
      <circle fill="#FFA726" cx="12" cy="21" r="5"/>
      <path fill="#455A64" d="M2,34.7c0,0,2.8-6.3,10-6.3s10,6.3,10,6.3V38H2V34.7z"/>
      <path fill="#455A64" d="M46,34.7c0,0-2.8-6.3-10-6.3s-10,6.3-10,6.3V38h20V34.7z"/>
      <circle fill="#FFB74D" cx="24" cy="17" r="6"/>
      <path fill="#607D8B" d="M36,34.1c0,0-3.3-7.5-12-7.5s-12,7.5-12,7.5V38h24V34.1z"/>
      <circle fill="#FFA726" cx="36" cy="21" r="5"/>
      <circle fill="#FFA726" cx="12" cy="21" r="5"/>
      <circle fill="#FFA726" cx="36" cy="21" r="5"/>
    </g>

    <g id="activity" width="24" height="24" viewBox="0 0 48 48" fill="rgb(52, 73, 94)">
      <path fill="#64B5F6" d="M16,14c0,1.104-0.896,2-2,2H8c-1.104,0-2-0.896-2-2V8c0-1.104,0.896-2,2-2h6c1.104,0,2,0.896,2,2V14z"/>
      <path fill="#64B5F6" d="M29,14c0,1.104-0.896,2-2,2h-6c-1.104,0-2-0.896-2-2V8c0-1.104,0.896-2,2-2h6c1.104,0,2,0.896,2,2V14z"/>
      <path fill="#64B5F6" d="M42,14c0,1.104-0.896,2-2,2h-6c-1.104,0-2-0.896-2-2V8c0-1.104,0.896-2,2-2h6c1.104,0,2,0.896,2,2V14z"/>
      <path fill="#64B5F6" d="M16,27c0,1.104-0.896,2-2,2H8c-1.104,0-2-0.896-2-2v-6c0-1.104,0.896-2,2-2h6c1.104,0,2,0.896,2,2V27z"/>
      <path fill="#64B5F6" d="M29,27c0,1.104-0.896,2-2,2h-6c-1.104,0-2-0.896-2-2v-6c0-1.104,0.896-2,2-2h6c1.104,0,2,0.896,2,2V27z"/>
      <path fill="#64B5F6" d="M42,27c0,1.104-0.896,2-2,2h-6c-1.104,0-2-0.896-2-2v-6c0-1.104,0.896-2,2-2h6c1.104,0,2,0.896,2,2V27z"/>
      <path fill="#64B5F6" d="M16,40c0,1.104-0.896,2-2,2H8c-1.104,0-2-0.896-2-2v-6c0-1.104,0.896-2,2-2h6c1.104,0,2,0.896,2,2V40z"/>
      <path fill="#64B5F6" d="M29,40c0,1.104-0.896,2-2,2h-6c-1.104,0-2-0.896-2-2v-6c0-1.104,0.896-2,2-2h6c1.104,0,2,0.896,2,2V40z"/>
      <path fill="#64B5F6" d="M42,40c0,1.104-0.896,2-2,2h-6c-1.104,0-2-0.896-2-2v-6c0-1.104,0.896-2,2-2h6c1.104,0,2,0.896,2,2V40z"/>
    </g>

    <g id="calendar-date" viewBox="0 0 48 48" width="24" height="24" fill="rgb(52, 73, 94)">
      <path fill="#CFD8DC" d="M5,38V14h38v24c0,2.2-1.8,4-4,4H9C6.8,42,5,40.2,5,38z"/>
      <path fill="#F44336" d="M43,10v6H5v-6c0-2.2,1.8-4,4-4h30C41.2,6,43,7.8,43,10z"/>
      <circle fill="#B71C1C" cx="33" cy="10" r="3"/>
      <circle fill="#B71C1C" cx="15" cy="10" r="3"/>
      <path fill="#B0BEC5" d="M33,3c-1.1,0-2,0.9-2,2v5c0,1.1,0.9,2,2,2s2-0.9,2-2V5C35,3.9,34.1,3,33,3z"/>
      <path fill="#B0BEC5" d="M15,3c-1.1,0-2,0.9-2,2v5c0,1.1,0.9,2,2,2s2-0.9,2-2V5C17,3.9,16.1,3,15,3z"/>
      <rect x="13" y="21" fill="#B0BEC5" width="6" height="6"/>
      <rect x="21" y="21" fill="#B0BEC5" width="6" height="6"/>
      <rect x="29" y="21" fill="#B0BEC5" width="6" height="6"/>
      <rect x="13" y="29" fill="#B0BEC5" width="6" height="6"/>
      <rect x="21" y="29" fill="#B0BEC5" width="6" height="6"/>
      <rect x="29" y="29" fill="#F44336" width="6" height="6"/>
    </g>

  </defs>
</svg>