<svg xmlns="http://www.w3.org/2000/svg" id="routes">
  <defs>
    
    <g id="about" viewBox="0 0 48 48" fill="rgb(52, 73, 94)">
      <rect x="5" y="7" fill="#546E7A" width="38" height="26"/>
      <rect x="7" y="9" fill="#BBDEFB" width="34" height="21"/>
      <path fill="#FFA726" d="M19,22.5c0,0.8-0.7,1.5-1.5,1.5S16,23.3,16,22.5s0.7-1.5,1.5-1.5S19,21.7,19,22.5 M32,22.5  c0-0.8-0.7-1.5-1.5-1.5S29,21.7,29,22.5s0.7,1.5,1.5,1.5S32,23.3,32,22.5"/>
      <path fill="#8BC34A" d="M27.8,31L27.8,31L24,31.8L20.3,31c0,0-8.3,1.5-8.3,10h24C36,32.6,27.8,31,27.8,31"/>
      <path fill="#FF9800" d="M24,33c-3.1,0-4-2-4-2v-4h8v4C28,31,27.1,33,24,33z"/>
      <path fill="#33691E" d="M24,35c3.1,0,5-1,5.9-3.3c-0.9-0.4-1.6-0.6-2-0.7c-0.7,1-1.8,1.9-4,1.9c-2.2,0-3.1-0.8-4-1.9  c-0.4,0.1-1.1,0.3-2,0.7C18.9,33.9,20.9,35,24,35z"/>
      <path fill="#424242" d="M27.2,12.6L26.4,11H24c-4.9,0-8,4.3-8,8.2V21l1,1c0,3.8,3,7,3,7h8c0,0,3-3.2,3-7l1-1v-0.8  C32,17,31.2,13.4,27.2,12.6z"/>
    </g>

    <g id="blog" viewBox="0 0 48 48" fill="rgb(52, 73, 94)">
      <path fill="#FF3D00" d="M30,11.001c1.188,0.594,4.486,0.13,6.974-0.346C38.59,8.737,40.267,6.543,42,4  c-9.55,0-15.856,1.338-19.977,3.303c-0.779,1.549-1.59,3.528-2.023,5.698c0-0.864,0.187-2.847,0.398-4.821  c-0.711,0.431-1.35,0.88-1.902,1.348C18.004,12.299,18,15.001,18,15.001s-0.609-1.833-0.987-3.979C12.549,16.435,16,23,16,23  s7.75,2.105,19.109-10.221C33.168,12.539,31.042,12.043,30,11.001z"/>
      <path fill="#DD2C00" d="M30,11.001c1.188,0.594,4.486,0.13,6.974-0.346C38.59,8.737,40.267,6.543,42,4c-7.938,0.75-26,11.625-26,19  c0,0,7.75,2.105,19.109-10.221C33.168,12.539,31.042,12.043,30,11.001z"/>
      <path fill="#FFCCBC" d="M12,38C12,9.383,37.968,4.613,42,4c-4.002,0.777-28,6.375-28,34H12z"/>
      <path fill="#90CAF9" d="M21,31c0,0.553-0.447,1-1,1h-8c-0.553,0-1-0.447-1-1v-5c0-0.553,0.447-1,1-1h8c0.553,0,1,0.447,1,1V31z"/>
      <path fill="#90CAF9" d="M20,29h-8c-3.313,0-6,3-6,6s2,7.002,2,7.002S8.75,44,10.688,44c0.951,0,9.674,0,10.625,0   C23.25,44,24,42.002,24,42.002S26,38,26,35S23.313,29,20,29z"/>
      <rect x="11" y="27" fill="#42A5F5" width="10" height="2"/>
      <path fill="#42A5F5" d="M14.17,25.001C12.818,28.67,12,32.957,12,38h2c0-5.037,0.813-9.324,2.144-12.999H14.17z"/>
      <path fill="#673AB7" d="M23.371,33H8.629C8.233,33.63,8,34.334,8,35c0,2.074,1.291,5.112,1.789,6.107l0.047,0.094l0.036,0.098  c0.001,0,0.31,0.701,0.815,0.701h10.625c0.502,0,0.813-0.693,0.815-0.701l0.036-0.098l0.047-0.094C22.708,40.109,24,37.061,24,35  C24,34.334,23.767,33.63,23.371,33z"/>
    </g>

    <g id="contact" viewBox="0 0 48 48" fill="rgb(52, 73, 94)">
      <polygon fill="#2196F3" points="18.083,32.917 15.917,39 42,6 42,6 "/>
      <polygon fill="#90CAF9" points="30,42 6,24 42,6 "/>
      <polygon fill="#1565C0" points="18.083,32.917 15.917,39 13.534,29.65 39,9.001 "/>
    </g>

    <g id="experience" viewBox="0 0 48 48" fill="rgb(52, 73, 94)">
      <path fill="#424242" d="M27,7h-6c-1.7,0-3,1.3-3,3v3h2v-3c0-0.6,0.4-1,1-1h6c0.6,0,1,0.4,1,1v3h2v-3C30,8.3,28.7,7,27,7z"/>
      <path fill="#E65100" d="M40,43H8c-2.2,0-4-1.8-4-4V15c0-2.2,1.8-4,4-4h32c2.2,0,4,1.8,4,4v24C44,41.2,42.2,43,40,43z"/>
      <path fill="#FF6E40" d="M40,28H8c-2.2,0-4-1.8-4-4v-9c0-2.2,1.8-4,4-4h32c2.2,0,4,1.8,4,4v9C44,26.2,42.2,28,40,28z"/>
      <path fill="#FFF3E0" d="M26,26h-4c-0.6,0-1-0.4-1-1v-2c0-0.6,0.4-1,1-1h4c0.6,0,1,0.4,1,1v2C27,25.6,26.6,26,26,26z"/>
    </g>

    <g id="home" viewBox="0 0 48 48" fill="rgb(52, 73, 94)">
      <polygon fill="#E8EAF6" points="42,39 6,39 6,23 24,6 42,23 "/>
      <polygon fill="#C5CAE9" points="39,21 34,16 34,9 39,9  "/>
      <rect x="6" y="39" fill="#C5CAE9" width="36" height="5"/>
      <polygon fill="#B71C1C" points="24,4.3 4,22.9 6,25.1 24,8.4 42,25.1 44,22.9 "/>
      <rect x="18" y="28" fill="#D84315" width="12" height="16"/>
      <rect x="21" y="17" fill="#01579B" width="6" height="6"/>
      <path fill="#FF8A65" d="M27.5,35.5c-0.3,0-0.5,0.2-0.5,0.5v2c0,0.3,0.2,0.5,0.5,0.5S28,38.3,28,38v-2C28,35.7,27.8,35.5,27.5,35.5z"/>
    </g>

    <g id="projects" viewBox="0 0 50 50" fill="rgb(52, 73, 94)">
      <rect x="7" y="7" fill="#1976D2" width="29" height="33"/>
      <rect x="11" y="8" fill="#42A5F5" width="1" height="31"/>
      <rect x="15" y="8" fill="#42A5F5" width="1" height="31"/>
      <rect x="19" y="8" fill="#42A5F5" width="1" height="31"/>
      <rect x="23" y="8" fill="#42A5F5" width="1" height="31"/>
      <rect x="27" y="8" fill="#42A5F5" width="1" height="31"/>
      <rect x="31" y="8" fill="#42A5F5" width="1" height="31"/>
      <rect x="8" y="11" fill="#42A5F5" width="27" height="1"/>
      <rect x="8" y="15" fill="#42A5F5" width="27" height="1"/>
      <rect x="8" y="19" fill="#42A5F5" width="27" height="1"/>
      <rect x="8" y="23" fill="#42A5F5" width="27" height="1"/>
      <rect x="8" y="27" fill="#42A5F5" width="27" height="1"/>
      <rect x="8" y="31" fill="#42A5F5" width="27" height="1"/>
      <rect x="8" y="35" fill="#42A5F5" width="27" height="1"/>
      <polygon fill="#1565C0" points="36,40 36,15.172 35.586,15.586 14.172,37 17.172,40  "/>
      <polygon fill="#1565C0" points="36,40 36,30 26,40 28.828,40  "/>
      <rect x="15.858" y="25.757" transform="matrix(0.7071 -0.7071 0.7071 0.7071 -12.4264 30)" fill="#FFA000" width="28.284" height="8.485"/>
      <rect x="34.125" y="19.406" transform="matrix(0.7071 0.7071 -0.7071 0.7071 24.7996 -19.0591)" fill="#9E6400" width="2.563" height="2"/>
      <rect x="31.656" y="22.314" transform="matrix(-0.7071 0.7071 -0.7071 -0.7071 73.1823 18.9994)" fill="#9E6400" width="2" height="4.685"/>
      <rect x="24.656" y="29.314" transform="matrix(-0.7071 0.7071 -0.7071 -0.7071 66.1823 35.8989)" fill="#9E6400" width="2" height="4.685"/>
      <rect x="20.406" y="33.125" transform="matrix(-0.7071 0.7071 -0.7071 -0.7071 60.8716 43.5986)" fill="#9E6400" width="2" height="2.563"/>
      <rect x="27.406" y="26.125" transform="matrix(-0.7071 0.7071 -0.7071 -0.7071 67.8717 26.6991)" fill="#9E6400" width="2" height="2.563"/>
      <polygon fill="#1976D2" points="15.586,35.586 15,36.172 15,37.828 15.586,38.414 16,38.828 16,36 18,36 19,35 16.172,35  "/>
      <polygon fill="#1976D2" points="27,39 28,39 28,38  "/>
      <polygon fill="#1976D2" points="35,32 35,31 34,32  "/>
      <polygon fill="#1976D2" points="32,39 32,36 35,36 35,35 32,35 32,34 30,36 31,36 31,39  "/>
      <polygon fill="#1976D2" points="19,32.172 19,35 20,34 20,32 22,32 23,31 20.172,31  "/>
      <polygon fill="#1976D2" points="27,24.172 27,27 28,26 28,24 30,24 31,23 28.172,23  "/>
      <polygon fill="#1976D2" points="23,28.172 23,31 24,30 24,28 26,28 27,27 24.172,27  "/>
      <polygon fill="#1976D2" points="31,20.172 31,23 32,22 32,20 34,20 35,19 32.172,19  "/>
    </g>

  </defs>
</svg>