<svg xmlns="http://www.w3.org/2000/svg">
  <defs>
    
    <g id="facebook" viewBox="0 0 48 48" fill="rgb(52, 73, 94)">
      <path fill="#3F51B5" d="M42,37c0,2.762-2.238,5-5,5H11c-2.761,0-5-2.238-5-5V11c0-2.762,2.239-5,5-5h26c2.762,0,5,2.238,5,5V37z"/>
      <path fill="#FFFFFF" d="M34.368,25H31v13h-5V25h-3v-4h3v-2.41c0.002-3.508,1.459-5.59,5.592-5.59H35v4h-2.287  C31.104,17,31,17.6,31,18.723V21h4L34.368,25z"/>
    </g>

    <g id="github" viewBox="0 0 48 48" fill="rgb(52, 73, 94)">
      <circle fill="#FFFFFF" cx="24" cy="24" r="17"/>
      <path fill="#455A64" d="M21,41v-5.5c0-0.276,0.224-0.5,0.5-0.5s0.5,0.224,0.5,0.5V41h2v-6.5c0-0.276,0.224-0.5,0.5-0.5   s0.5,0.224,0.5,0.5V41h2v-5.5c0-0.276,0.224-0.5,0.5-0.5s0.5,0.224,0.5,0.5V41h1.758C29.914,40.725,30,40.373,30,39.921v-3.942   c0-2.161-1.91-5.231-4.251-5.231H23.25c-2.34,0-4.25,3.071-4.25,5.231v3.942c0,0.452,0.086,0.804,0.241,1.079H21z"/>
      <path fill="none" stroke="#455A64" stroke-width="0.25" stroke-linecap="round" stroke-linejoin="round" stroke-miterlimit="10" d="   M34.618,26.197c0,0,1.914-0.328,3.044-0.308c1.143,0.011,2.438,0.363,2.438,0.363"/>
      <path fill="none" stroke="#455A64" stroke-width="0.25" stroke-linecap="round" stroke-linejoin="round" stroke-miterlimit="10" d="   M34.136,26.814c0,0,2.186-0.203,3.087-0.175c1.252,0.032,2.592,0.417,2.592,0.417"/>
      <path fill="none" stroke="#455A64" stroke-width="0.25" stroke-linecap="round" stroke-linejoin="round" stroke-miterlimit="10" d="   M14.564,26.089c0,0-2.708-0.245-3.554-0.245c-0.848,0-2.452,0.245-3.224,0.466"/>
      <path fill="none" stroke="#455A64" stroke-width="0.25" stroke-linecap="round" stroke-linejoin="round" stroke-miterlimit="10" d="   M15.179,26.934c0,0-2.839-0.263-4.131-0.108c-1.545,0.183-2.894,0.992-2.894,0.992"/>
      <path fill="#455A64" d="M14.174,23.46c0-4.416,4.619-8.46,10.326-8.46c5.697,0,10.326,4.042,10.326,8.46   c0,4.419-3.313,7.54-10.326,7.54C17.488,31,14.174,27.879,14.174,23.46z"/>
      <path fill="#455A64" d="M28.586,16.311c0,0,1.677-2.312,4.77-2.312c1.232,1.231,0.385,4.76-0.018,5.819L28.586,16.311z"/>
      <path fill="#455A64" d="M20.403,16.312c0,0-1.677-2.312-4.758-2.312c-1.231,1.233-0.396,4.76,0.006,5.819L20.403,16.312z"/>
      <path fill="#455A64" d="M20.106,35.863c0,0-2.349,0-2.79,0c-1.22,0-2.3-0.534-2.823-1.505c-0.587-1.079-1.14-2.3-2.585-3.309   c-0.255-0.179-0.108-0.438,0.393-0.38c0.489,0.051,1.416,0.159,2.126,1.088c0.708,0.93,1.481,1.997,2.81,1.997   c1.316,0,2.747,0.035,3.468-0.918L20.106,35.863z"/>
      <path fill="#00BCD4" d="M24,5C13.504,5,5,13.504,5,24s8.504,19,19,19s19-8.504,19-19S34.496,5,24,5z M24,40.033  c-8.838,0-16.033-7.195-16.033-16.033S15.162,7.967,24,7.967S40.033,15.162,40.033,24S32.838,40.033,24,40.033z"/>
    </g>

    <g id="instagram" viewBox="0 0 48 48" fill="rgb(52, 73, 94)">
      <path fill="#FFCC80" d="M6,18v19c0,2.762,2.239,5,5,5h26c2.762,0,5-2.238,5-5V18H6z"/>
      <path fill="#795548" d="M42,18v-7c0-2.762-2.238-5-5-5H11c-2.761,0-5,2.238-5,5v7H42z"/>
      <circle fill="#37474F" cx="24" cy="25" r="8"/>
      <path fill="#FFF3E0" d="M24,34c-4.962,0-9-4.037-9-9c0-4.962,4.038-9,9-9c4.963,0,9,4.038,9,9C33,29.963,28.963,34,24,34z M24,18  c-3.86,0-7,3.14-7,7c0,3.859,3.14,7,7,7c3.859,0,7-3.141,7-7C31,21.14,27.859,18,24,18z"/>
      <circle fill="#546E7A" cx="24" cy="25" r="5"/>
      <circle fill="#BBDEFB" cx="22" cy="23" r="2"/>
      <path fill="#F44336" d="M8,7.022V18h2V6.101C9.256,6.252,8.584,6.581,8,7.022z"/>
      <path fill="#FFEB3B" d="M11,6c-0.343,0-0.677,0.035-1,0.101V18h2V6H11z"/>
      <rect x="12" y="6" fill="#8BC34A" width="2" height="12"/>
      <rect x="14" y="6" fill="#2196F3" width="2" height="12"/>
      <rect x="32" y="9" fill="#3E2723" width="6" height="6"/>
      <path fill="#3E2723" d="M16,17.5c0,0.828-0.671,1.5-1.5,1.5h-5C8.671,19,8,18.328,8,17.5l0,0C8,16.672,8.671,16,9.5,16h5   C15.329,16,16,16.672,16,17.5L16,17.5z"/>
    </g>

    <g id="linkedin" viewBox="0 0 48 48" fill="rgb(52, 73, 94)">
      <path fill="#0288D1" d="M42,37c0,2.762-2.238,5-5,5H11c-2.761,0-5-2.238-5-5V11c0-2.762,2.239-5,5-5h26c2.762,0,5,2.238,5,5V37z"/>
      <rect x="12" y="19" fill="#FFFFFF" width="5" height="17"/>
      <path fill="#FFFFFF" d="M14.485,17h-0.028C12.965,17,12,15.888,12,14.499C12,13.08,12.995,12,14.514,12   c1.521,0,2.458,1.08,2.486,2.499C17,15.887,16.035,17,14.485,17z"/>
      <path fill="#FFFFFF" d="M36,36h-5v-9.099c0-2.198-1.225-3.698-3.192-3.698c-1.501,0-2.313,1.012-2.707,1.99   C24.957,25.543,25,26.511,25,27v9h-5V19h5v2.616C25.721,20.5,26.85,19,29.738,19c3.578,0,6.261,2.25,6.261,7.274L36,36L36,36z"/>
    </g>

    <g id="medium" viewBox="0 0 48 48" fill="rgb(52, 73, 94)">
      <path id="XMLID_8_" style="fill:#D0D0D0;" d="M32.163,6.369C31.523,6.049,31,6.372,31,7.088v28.45l11.674,5.837  C43.959,42.017,45,41.567,45,40.37V12.974c0-0.115-0.065-0.22-0.167-0.271L32.163,6.369z"/>
      <path id="XMLID_7_" style="fill:#A1A1A1;" d="M17,28.537L30.319,6.895c0.375-0.609,1.205-0.846,1.844-0.526l12.684,6.342  c0.082,0.041,0.111,0.144,0.063,0.222L31,35.537L17,28.537z"/>
      <path id="XMLID_6_" style="fill:#808080;" d="M4.938,6.756C3.872,6.223,3.511,6.618,4.136,7.633L17,28.537l14,7L17.03,12.836  c-0.02-0.032-0.048-0.058-0.082-0.075L4.938,6.756z"/>
      <path id="XMLID_5_" style="fill:#575757;" d="M17,40.37c0,1.192-0.872,1.731-1.938,1.198L4.163,36.119  C3.523,35.799,3,34.952,3,34.237V7.521c0-0.954,0.698-1.385,1.551-0.958l12.374,6.187C16.971,12.773,17,12.82,17,12.871V40.37z"/>
    </g>

    <g id="stack-overflow" viewBox="0 0 48 48" fill="rgb(52, 73, 94)">
      <rect x="9" y="28" fill="#607D8B" width="3" height="14"/>
      <rect x="9" y="39" fill="#607D8B" width="26" height="3"/>
      <rect x="32" y="28" fill="#607D8B" width="3" height="14"/>
      <rect x="15" y="34" fill="#607D8B" width="14" height="3"/>
      <rect x="14.88" y="29" transform="matrix(0.9943 0.107 -0.107 0.9943 3.3891 -2.1661)" fill="#A68A6E" width="14" height="3"/>
      <rect x="29.452" y="11.646" transform="matrix(0.1524 0.9883 -0.9883 0.1524 43.8912 -24.8825)" fill="#EF6C00" width="13.999" height="3.001"/>
      <rect x="23.576" y="13.578" transform="matrix(0.488 0.8728 -0.8728 0.488 28.8149 -18.9673)" fill="#FF9800" width="13.998" height="3.001"/>
      <rect x="18.395" y="18.275" transform="matrix(0.8215 0.5702 -0.5702 0.8215 15.8103 -10.9505)" fill="#D38B28" width="13.998" height="3.001"/>
      <rect x="15.977" y="23.499" transform="matrix(0.941 0.3385 -0.3385 0.941 9.8201 -6.3022)" fill="#C09553" width="13.999" height="3.001"/>
    </g>

    <g id="twitter" viewBox="0 0 48 48" fill="rgb(52, 73, 94)">
      <path fill="#03A9F4" d="M42,12.429c-1.323,0.586-2.746,0.977-4.247,1.162c1.526-0.906,2.7-2.351,3.251-4.058  c-1.428,0.837-3.01,1.452-4.693,1.776C34.967,9.884,33.05,9,30.926,9c-4.08,0-7.387,3.278-7.387,7.32  c0,0.572,0.067,1.129,0.193,1.67c-6.138-0.308-11.582-3.226-15.224-7.654c-0.64,1.082-1,2.349-1,3.686  c0,2.541,1.301,4.778,3.285,6.096c-1.211-0.037-2.351-0.374-3.349-0.914c0,0.022,0,0.055,0,0.086c0,3.551,2.547,6.508,5.923,7.181  c-0.617,0.169-1.269,0.263-1.941,0.263c-0.477,0-0.942-0.054-1.392-0.135c0.94,2.902,3.667,5.023,6.898,5.086  c-2.528,1.96-5.712,3.134-9.174,3.134c-0.598,0-1.183-0.034-1.761-0.104C9.268,36.786,13.152,38,17.321,38  c13.585,0,21.017-11.156,21.017-20.834c0-0.317-0.01-0.633-0.025-0.945C39.763,15.197,41.013,13.905,42,12.429"/>
    </g>

    <g id="email" viewBox="0 0 48 48">
      <path fill="#673AB7" d="M40,10H8c-2.209,0-4,1.791-4,4v20c0,2.209,1.791,4,4,4h32c2.209,0,4-1.791,4-4V14C44,11.791,42.209,10,40,10  z"/>
      <path fill="#B39DDB" d="M44,14.025c0-0.465-0.095-0.904-0.24-1.32L24,27.025L4.241,12.705C4.095,13.121,4,13.561,4,14.025V15  l20,14.495L44,15V14.025z"/>
    </g>
  
  </defs>
</svg>